<?xml version="1.0" encoding="UTF-8"?>
<svg id="Layer_1" data-name="Layer 1" xmlns="http://www.w3.org/2000/svg" viewBox="0 0 1200 1200">
  <defs>
    <style>
      .cls-1 {
        fill: #0a2540;
      }

      .cls-2 {
        fill: #2ecf31;
      }
    </style>
  </defs>
  <circle class="cls-2" cx="600" cy="600" r="600"/>
  <path class="cls-1" d="M600,1199.97c-84.78,0-167.85-18.98-246.9-56.42-57.76-27.36-112.3-63.9-162.1-108.63-51.01-45.82-57.17-123.51-14.03-176.88,22.41-27.74,46.08-56.21,68.97-83.75,36.98-44.49,75.13-90.4,110.68-136.34-25.91-110.27-19.82-227.62,17.43-331.83,9.36-26.21,22.17-56.11,46.23-79.05,28.33-27.01,67.48-36.94,99.75-25.29,31.09,11.23,54.77,42.58,60.32,79.85,4.79,32.07-2.97,62.6-11.19,88.24-15.04,46.92-37.41,95.1-68.37,147.27-24,40.43-53.49,83.66-89.96,131.85,11.4,40.6,27.41,79.34,47.67,115.3,40.42,71.72,98.19,133.65,168.16,180.61,59.12-188.7,136.03-372.42,228.84-546.55l7.02-13.17h173.31c15.28,0,28.86-7.97,36.32-21.31,7.44-13.3,7.12-28.98-.84-41.94-76.29-124.15-219.98-272.13-471.31-272.13C296.6,49.77,49.77,296.6,49.77,600c0,81.8,17.52,160.51,52.08,233.92,5.85,12.43.52,27.25-11.91,33.1-12.43,5.85-27.25.52-33.1-11.91C19.15,775.02.03,689.18.03,600c0-80.98,15.87-159.56,47.16-233.54,30.22-71.45,73.48-135.61,128.57-190.7,55.09-55.09,119.25-98.35,190.7-128.57C440.44,15.9,519.02.03,600,.03c125.74,0,238.92,34.91,336.4,103.75,86.53,61.11,144.18,138.19,177.29,192.08,17.53,28.53,18.23,63.02,1.88,92.26-16.38,29.29-46.19,46.78-79.74,46.78h-143.41c-93.22,176.95-169.81,363.77-227.73,555.53l-9.17,30.35-27.3-16.13c-89.62-52.97-163.29-127.64-213.07-215.95-16.42-29.14-30.29-59.93-41.45-91.95-29.39,36.99-59.83,73.61-89.52,109.33-22.78,27.41-46.34,55.75-68.54,83.23-26.5,32.78-22.72,80.48,8.59,108.61,77.36,69.48,205.34,152.31,375.75,152.31,303.4,0,550.23-246.83,550.23-550.23,0-28.97-2.27-58.03-6.75-86.37-2.14-13.57,7.12-26.3,20.69-28.45,13.57-2.15,26.3,7.12,28.45,20.69,4.88,30.9,7.36,62.58,7.36,94.13,0,80.98-15.87,159.56-47.16,233.54-30.22,71.45-73.48,135.61-128.57,190.7-55.09,55.09-119.25,98.35-190.7,128.57-73.98,31.29-152.56,47.16-233.54,47.16ZM491.73,246.63c-13.63,0-27.68,7.43-37.12,16.44-16.53,15.76-26.32,39.06-33.71,59.78-29.33,82.06-37.51,173.11-24.05,261.33,63.02-87.56,103.1-161.36,124.94-229.5,6.47-20.17,12.64-43.75,9.36-65.71-2.38-15.94-11.96-34.61-28.02-40.41-3.69-1.33-7.53-1.93-11.4-1.93Z"/>
</svg>