<?xml version="1.0" encoding="UTF-8"?>
<svg id="Layer_1" data-name="Layer 1" xmlns="http://www.w3.org/2000/svg" viewBox="0 0 1200 1200">
  <defs>
    <style>
      .cls-1 {
        fill: #0a2540;
      }

      .cls-2 {
        fill: #2ecf31;
      }
    </style>
  </defs>
  <rect class="cls-1" x="-21.98" y="-21.98" width="1243.96" height="1243.96"/>
  <path class="cls-2" d="M950.31,538.72c2.38,1.53,4.11,3.47,5.21,5.82,1.09,2.35,1.64,4.84,1.64,7.46s-.55,5.11-1.64,7.46c-1.09,2.35-2.83,4.29-5.21,5.82-2.38,1.53-5.37,2.3-8.98,2.3s-6.6-.77-8.98-2.3c-2.38-1.53-4.11-3.47-5.21-5.82-1.1-2.35-1.64-4.84-1.64-7.46s.55-5.11,1.64-7.46c1.09-2.35,2.83-4.29,5.21-5.82,2.38-1.53,5.37-2.3,8.98-2.3s6.6.77,8.98,2.3ZM948.55,562.75c1.91-1.26,3.32-2.83,4.22-4.72.9-1.89,1.35-3.9,1.35-6.03s-.45-4.07-1.35-5.99c-.9-1.91-2.31-3.5-4.22-4.76-1.91-1.26-4.32-1.89-7.22-1.89s-5.29.63-7.18,1.89c-1.89,1.26-3.28,2.83-4.18,4.72-.9,1.89-1.35,3.9-1.35,6.03s.45,4.07,1.35,5.99c.9,1.91,2.3,3.5,4.18,4.76,1.89,1.26,4.28,1.89,7.18,1.89s5.3-.63,7.22-1.89ZM946.7,552.58c.46.49.7,1.12.7,1.89v5.91h-2.87v-5.99c0-.38-.14-.71-.41-.98-.27-.27-.63-.41-1.07-.41h-4.76v7.38h-3.12v-16.81h7.71c1.59,0,2.8.37,3.65,1.11.85.74,1.27,1.74,1.27,2.99,0,.77-.18,1.41-.53,1.93-.36.52-.77.93-1.23,1.23-.47.3-.86.51-1.19.62v.41c.77,0,1.38.25,1.84.74ZM944.08,549.71c.41-.33.61-.79.61-1.39,0-.66-.2-1.15-.61-1.48-.41-.33-.92-.49-1.52-.49h-4.18v3.86h4.18c.6,0,1.11-.16,1.52-.49Z"/>
  <g>
    <path class="cls-2" d="M558.36,686.19c-1.68-.92-3.58-1.38-5.71-1.38h-8.3v23.52h8.3c2.17,0,4.1-.46,5.78-1.39,1.68-.93,2.99-2.28,3.93-4.05.94-1.77,1.41-3.88,1.41-6.32s-.48-4.55-1.45-6.33c-.96-1.78-2.29-3.13-3.96-4.05ZM560.08,701.15c-.63,1.4-1.57,2.52-2.84,3.36-1.27.84-2.82,1.26-4.65,1.26h-5.48v-18.48h5.48c1.84,0,3.39.43,4.65,1.28,1.27.85,2.21,1.98,2.84,3.39.63,1.41.94,2.95.94,4.6s-.31,3.19-.94,4.59Z"/>
    <path class="cls-2" d="M574.27,694.4c-.59.75-1.04,1.64-1.33,2.67h-.47c.31-1.81.47-3.15.47-4,0-.34-.12-.61-.37-.82-.25-.21-.55-.32-.91-.32h-3.33v2.49h1.65c.16,0,.27.04.35.12.08.08.12.2.12.35v13.44h2.75v-7.09c0-1.16.22-2.26.66-3.29.44-1.03,1.14-1.88,2.1-2.54.96-.66,2.17-.99,3.63-.99v-2.49c-1.17.02-2.2.25-3.09.69-.9.44-1.64,1.03-2.23,1.78Z"/>
    <path class="cls-2" d="M587.46,691.93h-3.63v2.49h1.38c.18,0,.33.06.44.19.11.12.17.26.17.42v13.31h2.75v-15.32c0-.29-.11-.54-.32-.76-.21-.21-.48-.32-.79-.32Z"/>
    <path class="cls-2" d="M587.13,684.27c-.43,0-.8.15-1.11.45-.31.3-.47.66-.47,1.06,0,.43.16.78.47,1.08.31.29.68.44,1.11.44.4,0,.76-.15,1.06-.45.3-.3.45-.66.45-1.06s-.15-.76-.45-1.06c-.3-.3-.66-.45-1.06-.45Z"/>
    <path class="cls-2" d="M602.11,703.59c-.27.74-.46,1.49-.57,2.25h-.44c-.13-.76-.34-1.51-.61-2.25l-4.4-11.66h-2.76l6.01,16.4h3.9l6.01-16.4h-2.76l-4.4,11.66Z"/>
    <path class="cls-2" d="M627.72,696.1c-.56-1.39-1.44-2.5-2.64-3.33-1.2-.83-2.68-1.24-4.45-1.24s-3.28.42-4.45,1.26c-1.18.84-2.04,1.91-2.59,3.21-.55,1.3-.82,2.67-.82,4.1s.27,2.81.82,4.13c.55,1.32,1.41,2.4,2.59,3.24,1.18.84,2.66,1.26,4.45,1.26,2.2,0,3.9-.58,5.11-1.73,1.21-1.15,2.02-2.55,2.42-4.18h-2.69c-.38,1.17-.97,2.06-1.76,2.69-.8.63-1.83.94-3.11.94-1.21,0-2.2-.29-2.97-.87-.77-.58-1.33-1.3-1.68-2.17-.35-.86-.54-1.76-.59-2.7h13.1c.07-1.68-.18-3.21-.74-4.6ZM615.42,698.95c.09-.87.34-1.7.74-2.49s.97-1.42,1.71-1.92c.74-.49,1.65-.74,2.72-.74s1.99.26,2.75.79,1.34,1.18,1.75,1.97c.4.78.64,1.58.71,2.39h-10.38Z"/>
    <path class="cls-2" d="M658.13,696.11c-1.21-.41-2.69-.78-4.44-1.09h-.07l-.61-.1c-1.01-.18-1.84-.4-2.49-.66-.65-.26-1.19-.64-1.63-1.16-.44-.52-.66-1.19-.66-2.02,0-.69.2-1.36.61-2,.4-.64,1.02-1.16,1.86-1.58.84-.41,1.9-.62,3.18-.62s2.37.21,3.21.62c.84.42,1.46.94,1.86,1.58.4.64.61,1.31.61,2v.27h2.75v-.27c0-1.12-.3-2.18-.89-3.19-.59-1.01-1.52-1.84-2.79-2.5-1.27-.66-2.85-.99-4.75-.99s-3.48.33-4.74.99c-1.25.66-2.18,1.5-2.77,2.5-.59,1.01-.89,2.07-.89,3.19,0,1.43.35,2.58,1.06,3.43.71.85,1.56,1.48,2.57,1.88s2.2.74,3.56,1.01l.54.1c.34.07.67.13,1.01.2,1.08.2,2,.45,2.77.74.77.29,1.42.7,1.93,1.23.51.53.77,1.2.77,2.03,0,.76-.21,1.49-.62,2.18-.42.69-1.06,1.26-1.93,1.7-.87.44-1.98.66-3.33.66s-2.46-.23-3.36-.71c-.9-.47-1.55-1.06-1.97-1.78-.41-.72-.62-1.47-.62-2.25h-2.76c0,1.19.3,2.34.91,3.44.61,1.11,1.56,2.02,2.86,2.72,1.3.71,2.93,1.06,4.91,1.06s3.61-.34,4.91-1.02,2.25-1.56,2.86-2.62c.6-1.06.91-2.19.91-3.38,0-1.5-.42-2.71-1.26-3.61-.84-.91-1.87-1.57-3.08-1.98Z"/>
    <path class="cls-2" d="M693.6,693.19c-.73-.73-1.61-1.21-2.64-1.46-1.14-.29-2.23-.27-3.28.07-1.04.34-1.97.93-2.77,1.78-.81.85-1.41,1.93-1.82,3.23h-.47c.04-.43-.04-.99-.25-1.7-.21-.71-.61-1.39-1.19-2.05-.58-.66-1.38-1.1-2.39-1.33-1.12-.27-2.2-.24-3.24.08-1.04.32-1.96.91-2.74,1.76-.79.85-1.36,1.93-1.71,3.23h-.47c.18-.56.33-1.17.45-1.83.12-.66.18-1.26.18-1.8v-1.24h-2.76v16.4h2.76v-5.88c0-.72.02-1.29.05-1.73.03-.44.07-.97.12-1.6l.03-.17c.18-.99.51-1.89.99-2.72.48-.83,1.11-1.46,1.9-1.9s1.72-.58,2.82-.42c1.3.2,2.24.75,2.82,1.65.58.9.87,1.98.87,3.26v9.51h2.55v-5.88c0-1.21.07-2.37.2-3.49.18-1.01.5-1.92.97-2.74.47-.82,1.1-1.45,1.88-1.9.78-.45,1.72-.58,2.82-.4,1.25.18,2.19.73,2.81,1.66.62.93.92,2.01.92,3.24v9.51h2.76v-9.78c0-.96-.18-1.92-.55-2.86-.37-.94-.92-1.77-1.65-2.5Z"/>
    <path class="cls-2" d="M716.61,705.66c-.12-.12-.18-.27-.18-.45v-7.22c0-1.19-.29-2.27-.87-3.26-.58-.99-1.43-1.76-2.54-2.33-1.11-.57-2.41-.86-3.91-.86s-2.81.29-3.93.86-1.97,1.32-2.55,2.25c-.58.93-.87,1.93-.87,3.01h2.69c0-.69.19-1.33.57-1.92s.93-1.05,1.65-1.39c.72-.35,1.52-.52,2.42-.52.78,0,1.48.13,2.1.39.62.26,1.11.6,1.5,1.02.38.43.63.88.74,1.38.11.47.01.82-.3,1.06s-.82.44-1.51.62l-.44.07c-.45.09-1.2.21-2.25.37-.54.07-1.11.15-1.71.25-.6.1-1.17.21-1.68.32-1.12.27-2.05.77-2.79,1.51s-1.11,1.78-1.11,3.12c0,.85.2,1.62.6,2.32.4.69.94,1.25,1.6,1.66.66.41,1.37.67,2.13.76,1.03.11,2,.08,2.92-.1.92-.18,1.77-.53,2.55-1.04.65-.43,1.23-.99,1.73-1.7s.89-1.43,1.16-2.17h.47c-.13.38-.25.81-.34,1.29-.09.48-.13.96-.13,1.43,0,.58.18,1.05.54,1.41.36.36.83.54,1.41.54h2.08v-2.49h-1.24c-.2,0-.36-.06-.49-.19ZM713.67,700.4c0,.56-.04,1.11-.13,1.65-.16.74-.45,1.44-.87,2.1-.43.66-1.01,1.19-1.75,1.6-.74.43-1.39.68-1.95.77-.56.09-1.23.08-2.02-.03-.74-.11-1.37-.44-1.9-.99-.53-.55-.79-1.19-.79-1.93,0-.85.3-1.54.89-2.07.59-.53,1.32-.86,2.17-.99.96-.16,1.83-.3,2.59-.44,1.03-.22,1.86-.43,2.49-.6.63-.18,1.05-.36,1.28-.54v1.48Z"/>
    <path class="cls-2" d="M727.87,694.4c-.59.75-1.04,1.64-1.33,2.67h-.47c.31-1.81.47-3.15.47-4,0-.34-.12-.61-.37-.82-.25-.21-.55-.32-.91-.32h-3.33v2.49h1.65c.16,0,.27.04.35.12.08.08.12.2.12.35v13.44h2.75v-7.09c0-1.16.22-2.26.66-3.29.44-1.03,1.14-1.88,2.1-2.54.96-.66,2.17-.99,3.63-.99v-2.49c-1.17.02-2.2.25-3.09.69-.9.44-1.64,1.03-2.23,1.78Z"/>
    <path class="cls-2" d="M742.23,684.81h-2.76v7.12h-2.39v2.49h2.39v8.87c0,.9.2,1.73.61,2.5.4.77.98,1.39,1.73,1.85.75.46,1.64.69,2.67.69h2.39v-2.49h-2.12c-.69,0-1.29-.25-1.78-.76-.49-.5-.74-1.11-.74-1.83v-8.84h4.64v-2.49h-4.64v-7.12Z"/>
    <path class="cls-2" d="M754.65,705.61c-.26-.16-.53-.24-.82-.24-.47,0-.88.16-1.23.49-.35.33-.52.72-.52,1.19s.17.87.52,1.19c.35.32.76.49,1.23.49s.84-.16,1.19-.49c.35-.32.52-.72.52-1.19,0-.31-.08-.59-.25-.84-.17-.25-.38-.45-.64-.6Z"/>
    <path class="cls-2" d="M792.94,695.19h-9.04v2.52h7.26c.18,0,.32.06.44.17.11.11.17.25.17.4,0,1.28-.3,2.53-.89,3.75-.59,1.22-1.46,2.22-2.6,3.01-1.14.78-2.51,1.19-4.1,1.21-1.86-.02-3.41-.51-4.65-1.46s-2.15-2.16-2.72-3.63-.86-3-.86-4.59.29-3.15.87-4.62c.58-1.47,1.5-2.68,2.75-3.63s2.83-1.43,4.74-1.43,3.5.47,4.72,1.39c1.22.93,2.11,2.07,2.67,3.41h2.92c-.38-1.14-.97-2.26-1.76-3.34-.8-1.09-1.9-2.02-3.33-2.79s-3.15-1.16-5.19-1.16c-2.55,0-4.67.59-6.33,1.76-1.67,1.18-2.89,2.69-3.66,4.54-.77,1.85-1.16,3.8-1.16,5.86,0,2.44.43,4.58,1.29,6.4.86,1.83,2.06,3.24,3.6,4.25,1.53,1.01,3.29,1.51,5.26,1.51s3.77-.46,5.12-1.39c1.36-.93,2.35-1.98,2.99-3.16.64-1.18,1.04-2.23,1.19-3.18h.47c-.67,2.37-1.01,4.14-1.01,5.31v2.02h2.55v-11.42c0-.49-.16-.9-.47-1.23-.31-.32-.73-.49-1.24-.49Z"/>
    <path class="cls-2" d="M812.18,692.79c-1.15-.84-2.6-1.26-4.35-1.26s-3.27.42-4.42,1.26c-1.15.84-2,1.92-2.54,3.23-.54,1.31-.81,2.68-.81,4.12s.27,2.81.81,4.12c.54,1.31,1.38,2.39,2.54,3.23,1.15.84,2.62,1.26,4.39,1.26s3.23-.42,4.38-1.26c1.15-.84,2-1.92,2.54-3.23.54-1.31.81-2.68.81-4.12s-.27-2.81-.81-4.12c-.54-1.31-1.38-2.39-2.54-3.23ZM812.53,703.24c-.36,1-.94,1.81-1.73,2.44s-1.8.94-3.01.94-2.21-.31-3.01-.94-1.38-1.44-1.75-2.44c-.37-1-.55-2.03-.55-3.11s.18-2.11.55-3.11c.37-1,.95-1.81,1.75-2.44.79-.63,1.8-.94,3.01-.94s2.21.31,3.01.94c.79.63,1.37,1.44,1.73,2.44.36,1,.54,2.03.54,3.11s-.18,2.11-.54,3.11Z"/>
    <path class="cls-2" d="M852.11,695.19h-9.04v2.52h7.26c.18,0,.32.06.44.17.11.11.17.25.17.4,0,1.28-.3,2.53-.89,3.75-.59,1.22-1.46,2.22-2.6,3.01-1.14.78-2.51,1.19-4.1,1.21-1.86-.02-3.41-.51-4.65-1.46s-2.15-2.16-2.72-3.63-.86-3-.86-4.59.29-3.15.87-4.62c.58-1.47,1.5-2.68,2.75-3.63s2.83-1.43,4.74-1.43,3.5.47,4.72,1.39c1.22.93,2.11,2.07,2.67,3.41h2.92c-.38-1.14-.97-2.26-1.76-3.34-.8-1.09-1.9-2.02-3.33-2.79s-3.15-1.16-5.19-1.16c-2.55,0-4.67.59-6.33,1.76-1.67,1.18-2.89,2.69-3.66,4.54-.77,1.85-1.16,3.8-1.16,5.86,0,2.44.43,4.58,1.29,6.4.86,1.83,2.06,3.24,3.6,4.25,1.53,1.01,3.29,1.51,5.26,1.51s3.77-.46,5.12-1.39c1.36-.93,2.35-1.98,2.99-3.16.64-1.18,1.04-2.23,1.19-3.18h.47c-.67,2.37-1.01,4.14-1.01,5.31v2.02h2.55v-11.42c0-.49-.16-.9-.47-1.23-.31-.32-.73-.49-1.24-.49Z"/>
    <path class="cls-2" d="M864.63,694.4c-.59.75-1.04,1.64-1.33,2.67h-.47c.31-1.81.47-3.15.47-4,0-.34-.12-.61-.37-.82-.25-.21-.55-.32-.91-.32h-3.33v2.49h1.65c.16,0,.27.04.35.12.08.08.12.2.12.35v13.44h2.75v-7.09c0-1.16.22-2.26.66-3.29.44-1.03,1.14-1.88,2.1-2.54.96-.66,2.17-.99,3.63-.99v-2.49c-1.17.02-2.2.25-3.09.69-.9.44-1.64,1.03-2.23,1.78Z"/>
    <path class="cls-2" d="M888.37,696.1c-.56-1.39-1.44-2.5-2.64-3.33-1.2-.83-2.68-1.24-4.45-1.24s-3.28.42-4.45,1.26c-1.18.84-2.04,1.91-2.59,3.21-.55,1.3-.82,2.67-.82,4.1s.27,2.81.82,4.13c.55,1.32,1.41,2.4,2.59,3.24,1.18.84,2.66,1.26,4.45,1.26,2.2,0,3.9-.58,5.11-1.73,1.21-1.15,2.02-2.55,2.42-4.18h-2.69c-.38,1.17-.97,2.06-1.76,2.69-.8.63-1.83.94-3.11.94-1.21,0-2.2-.29-2.97-.87-.77-.58-1.33-1.3-1.68-2.17-.35-.86-.54-1.76-.59-2.7h13.1c.07-1.68-.18-3.21-.74-4.6ZM876.07,698.95c.09-.87.34-1.7.74-2.49s.97-1.42,1.71-1.92c.74-.49,1.65-.74,2.72-.74s1.99.26,2.75.79,1.34,1.18,1.75,1.97c.4.78.64,1.58.71,2.39h-10.38Z"/>
    <path class="cls-2" d="M909.03,696.1c-.56-1.39-1.44-2.5-2.64-3.33-1.2-.83-2.68-1.24-4.45-1.24s-3.28.42-4.45,1.26c-1.18.84-2.04,1.91-2.59,3.21-.55,1.3-.82,2.67-.82,4.1s.27,2.81.82,4.13c.55,1.32,1.41,2.4,2.59,3.24,1.18.84,2.66,1.26,4.45,1.26,2.2,0,3.9-.58,5.11-1.73,1.21-1.15,2.02-2.55,2.42-4.18h-2.69c-.38,1.17-.97,2.06-1.76,2.69-.8.63-1.83.94-3.11.94-1.21,0-2.2-.29-2.97-.87-.77-.58-1.33-1.3-1.68-2.17-.35-.86-.54-1.76-.59-2.7h13.1c.07-1.68-.18-3.21-.74-4.6ZM896.73,698.95c.09-.87.34-1.7.74-2.49s.97-1.42,1.71-1.92c.74-.49,1.65-.74,2.72-.74s1.99.26,2.75.79,1.34,1.18,1.75,1.97c.4.78.64,1.58.71,2.39h-10.38Z"/>
    <path class="cls-2" d="M928.62,693.21c-.72-.74-1.61-1.24-2.69-1.51-1.19-.29-2.32-.27-3.39.07-1.08.34-1.99.94-2.75,1.8-.76.86-1.29,1.93-1.58,3.21h-.47c.18-.56.33-1.17.45-1.83.12-.66.18-1.26.18-1.8v-1.21h-2.76v16.4h2.76v-5.34c0-1.39.08-2.74.24-4.07.16-1.12.48-2.09.96-2.92.48-.83,1.13-1.44,1.93-1.83.81-.39,1.74-.5,2.79-.32,1.3.2,2.24.77,2.82,1.71.58.94.87,2.16.87,3.66v9.11h2.75v-9.41c0-1.08-.17-2.11-.52-3.11-.35-1-.88-1.86-1.6-2.6Z"/>
    <path class="cls-2" d="M940.4,706.21c-.17-.25-.38-.45-.64-.6-.26-.16-.53-.24-.82-.24-.47,0-.88.16-1.23.49-.35.33-.52.72-.52,1.19s.17.87.52,1.19c.35.32.76.49,1.23.49s.84-.16,1.19-.49c.35-.32.52-.72.52-1.19,0-.31-.08-.59-.25-.84Z"/>
    <path class="cls-2" d="M648.31,553.66c0-4.64-3.79-8.26-8.26-8.26h-72.91c-4.46,0-8.24,3.62-8.24,8.26s3.79,8.26,8.24,8.26h27.18v95.09c0,5.33,4.29,9.8,9.45,9.8,4.83,0,9.12-4.47,9.12-9.8v-95.09h27.17c4.47,0,8.26-3.61,8.26-8.26Z"/>
    <path class="cls-2" d="M722.08,619.52c17.03-5.15,27.18-18.57,27.18-35.93,0-21.67-17.02-38.18-43.86-38.18h-31.46c-5.85,0-10.14,4.31-10.14,10.14v101.8c0,5.15,4.13,9.46,9.46,9.46,4.98,0,9.11-4.31,9.11-9.46v-95.95h22.35c15.82,0,26.48,7.05,26.48,22.19,0,15.98-10.66,22.35-26.48,22.35-5.74,0-8.95,6.62-5.39,11.13l3.83,4.85,10.66,13.49,21.68,27.44c1.82,2.23,4.84,3.98,8.5,3.28,2.82-.54,5.19-2.59,6.21-5.27,1.27-3.37.37-6.75-1.65-9.01l-26.48-32.33Z"/>
    <path class="cls-2" d="M786.91,657.18v-102.66c0-5.15-4.29-9.63-9.28-9.63-5.33,0-9.63,4.47-9.63,9.63v102.66c0,5.15,4.29,9.63,9.63,9.63,4.99,0,9.28-4.47,9.28-9.63Z"/>
    <path class="cls-2" d="M822.26,494.57c20.63,0,37.41,16.78,37.41,37.41v12.57c-12.06,1.32-23.74,6.56-33.12,14.83h78.25c-9.39-8.26-21.07-13.5-33.13-14.83v-12.57c0-27.24-22.16-49.41-49.41-49.41h-271.4l-1.69,3.18c-37.95,71.21-69.26,146.42-93.11,223.67-30.6-19.51-55.81-45.91-73.18-76.74-8.7-15.45-15.4-31.96-20.04-49.03,27.81-36.55,51.8-73.96,64.13-112.41,3.16-9.85,6.14-21.55,4.35-33.6-2.02-13.53-10.51-24.87-21.62-28.89-11.54-4.17-25.64-.52-35.93,9.28-9.04,8.62-13.95,20.09-17.55,30.18-15.15,42.39-17.09,89.12-6.44,132.76-14.63,18.98-30.24,37.77-45.68,56.34-27.82,33.48-54.1,65.1-73.93,96.62-18.73,29.77-23.09,54.95-12.99,74.82,6.2,12.18,21.43,23.08,38.81,27.77,6.13,1.65,12.29,2.47,18.36,2.47,11.33,0,22.35-2.86,32.27-8.44,11.46,12.94,28.17,21.89,50.08,23.09,96.68,5.3,107.44-137.54,11.75-148.5h-13.88c-63.18,5.82-80.95,73.7-55.16,115.69-15.32,8.14-30.18,6.84-40.3,4.11-16.12-4.35-27.49-14.26-31.24-21.63-8.06-15.84-3.87-37.04,12.45-62.99,19.4-30.85,45.44-62.18,73-95.34,13.6-16.37,27.34-32.9,40.46-49.61,4.7,14.99,10.92,29.49,18.65,43.2,19.63,34.83,48.69,64.28,84.06,85.19l6.58,3.89,2.21-7.32c23.55-77.96,54.76-153.89,92.79-225.75h264.19ZM361.45,716.89c34.48,0,62.44,27.98,62.44,62.51s-27.95,62.51-62.44,62.51-62.44-27.98-62.44-62.51,27.95-62.51,62.44-62.51ZM367.5,452.24c3.13-8.76,7.3-18.64,14.53-25.53,4.43-4.22,11.09-7.68,17.71-7.68,1.98,0,3.95.31,5.86,1,7.02,2.54,12.45,10.14,13.83,19.37,1.43,9.62-1.17,19.64-3.9,28.17-10.92,34.08-31.72,67.74-56.26,100.84-7.6-38.53-5.01-79.1,8.23-116.16Z"/>
    <path class="cls-2" d="M925.5,605.48c0-10.07-2.19-19.13-5.93-27-3.38-7.1-10.59-11.59-18.45-11.59h-70.9c-7.87,0-15.07,4.49-18.45,11.59-3.75,7.87-5.93,16.92-5.93,27,0,37.98,31.06,61.5,59.83,61.5s59.84-23.51,59.84-61.5ZM810.54,605.48c0-8.94,1.84-17.34,5.47-24.97,2.58-5.41,8.15-8.91,14.2-8.91h70.9c6.05,0,11.62,3.5,14.2,8.91,3.63,7.63,5.48,16.03,5.48,24.97,0,35.07-28.62,56.78-55.13,56.78s-55.12-21.71-55.12-56.78Z"/>
    <circle class="cls-2" cx="833.36" cy="607.98" r="10.43" transform="translate(-169.23 365.19) rotate(-22.5)"/>
    <circle class="cls-2" cx="865.66" cy="607.98" r="10.43"/>
    <circle class="cls-2" cx="897.97" cy="607.98" r="10.43" transform="translate(154 1396.97) rotate(-80.78)"/>
    <circle class="cls-2" cx="882.62" cy="586.46" r="5.91"/>
    <circle class="cls-2" cx="848.71" cy="586.46" r="5.91"/>
    <circle class="cls-2" cx="882.62" cy="633.45" r="10.43" transform="translate(-40.38 1206.47) rotate(-67.5)"/>
    <circle class="cls-2" cx="848.71" cy="633.45" r="10.43"/>
    <path class="cls-2" d="M340.97,779.36c0,1.74,1.41,3.15,3.15,3.15s3.15-1.41,3.15-3.15-1.41-3.15-3.15-3.15-3.15,1.41-3.15,3.15Z"/>
    <path class="cls-2" d="M373.61,763.93c-1.7,0-3.08,1.38-3.08,3.08s1.38,3.08,3.08,3.08,3.08-1.38,3.08-3.08-1.38-3.08-3.08-3.08Z"/>
    <path class="cls-2" d="M378.68,776.31c-1.7,0-3.08,1.38-3.08,3.08s1.38,3.08,3.08,3.08,3.08-1.38,3.08-3.08-1.38-3.08-3.08-3.08Z"/>
    <path class="cls-2" d="M378.18,799.04c-15.19,2.73-13.33,29.59-7.04,31.6,6.16,1.96,26.53-11.12,30.07-17.35-4.99-8.22-12.43-16.15-23.03-14.25Z"/>
    <circle class="cls-2" cx="349.34" cy="791.65" r="3.07"/>
    <path class="cls-2" d="M321.8,813.29c6.54,7.7,16.57,15.16,26.71,17.03,4.97.92,4.79-.48,6.29-4.79,2.56-7.34,2.52-17.81-3.61-23.38-10.18-9.25-24.6,1.11-29.39,11.14Z"/>
    <path class="cls-2" d="M349.39,763.89c-1.71,0-3.1,1.39-3.1,3.1s1.39,3.1,3.1,3.1,3.1-1.39,3.1-3.1-1.39-3.1-3.1-3.1Z"/>
    <path class="cls-2" d="M351.88,728.05c-.53-.18-1.04.02-1.56.07-9.3.78-22.17,9.76-28.24,16.78,14.31,29.87,46.61,10.71,29.8-16.84Z"/>
    <path class="cls-2" d="M373.52,795.01c1.75,0,3.17-1.42,3.17-3.17s-1.42-3.17-3.17-3.17-3.17,1.42-3.17,3.17,1.42,3.17,3.17,3.17Z"/>
    <path class="cls-2" d="M311.75,761.98c-3.39,11.78-3.98,22.96,0,34.72,34.9,2.47,33.31-35.3,0-34.72Z"/>
    <path class="cls-2" d="M361.5,800.01c1.76,0,3.19-1.43,3.19-3.2s-1.43-3.2-3.19-3.2-3.19,1.43-3.19,3.2,1.43,3.2,3.19,3.2Z"/>
    <path class="cls-2" d="M411.25,796.71c3.58-11.78,3.44-22.92,0-34.73-33.38-.3-34.5,36.84,0,34.73Z"/>
    <path class="cls-2" d="M400.95,744.91c-7.67-8.76-18.22-15.05-29.83-16.86-17.2,27.79,15.65,46.53,29.83,16.86Z"/>
    <circle class="cls-2" cx="361.5" cy="761.88" r="3.19"/>
  </g>
</svg>